<?xml version="1.0" encoding="utf-8"?><svg xmlns="http://www.w3.org/2000/svg" width="16" height="16" viewBox="-41 43 16 16"><style>.st0{fill:#fff}.st1{fill:none}</style><g id="bold"><path class="st0" d="M-41 43.4h4l4 5.9 4-5.9h4v15.3h-4.9v-5.5l-3.1 4.6-3.1-4.6v5.5H-41V43.4zm2.9 13.4V46.3l5.1 7.5 5.1-7.5v10.5h.6V45.2h-.6l-5.1 7.5-5.1-7.5h-.6v11.6h.6z"/><path class="st1" d="M-38.1 56.8V46.3l5.1 7.5 5.1-7.5v10.5h.6V45.2h-.6l-5.1 7.5-5.1-7.5h-.6v11.6z"/></g><path class="st1" d="M-38.1 56.8V46.3l5.1 7.5 5.1-7.5v10.5h.6V45.2h-.6l-5.1 7.5-5.1-7.5h-.6v11.6z" id="thin"/></svg>